<svg width="128" height="128" version="1.1" xmlns="http://www.w3.org/2000/svg" desc="Created with imagetracer.js version 1.2.6" ><path fill="rgb(0,0,0)" stroke="rgb(0,0,0)" stroke-width="1" opacity="0" d="M 0 0 L 128 0 L 128 128 L 0 128 L 0 0 Z M 23 29 L 23 84 L 45 105 L 99 105 L 99 50 L 79 29 L 23 29 Z " /><path fill="rgb(0,0,0)" stroke="rgb(0,0,0)" stroke-width="1" opacity="0" d="M 32.5 75 L 39 81.5 L 39 89.5 L 32 83.5 L 32.5 75 Z " /><path fill="rgb(0,0,0)" stroke="rgb(0,0,0)" stroke-width="1" opacity="0" d="M 86 89 L 94 89 L 94 92 L 86 92 L 86 89 Z " /><path fill="rgb(0,0,0)" stroke="rgb(0,0,0)" stroke-width="1" opacity="0" d="M 81 97 L 93.5 97 L 94 100 L 81.5 100 L 81 97 Z " /><path fill="rgb(0,0,0)" stroke="rgb(0,0,0)" stroke-width="1" opacity="1" d="M 23 29 L 78.5 29 L 99 49.5 L 99 105 L 44.5 105 L 23 83.5 L 23 29 Z M 33 75 L 32 84 L 39 90 L 39 82 L 33 75 Z M 86 89 L 86 92 L 94 92 L 94 89 L 86 89 Z M 81 97 L 82 100 L 94 100 L 94 97 L 81 97 Z " /></svg>